<?xml version="1.0" encoding="iso-8859-1"?>
<!-- Generator: Adobe Illustrator 19.0.0, SVG Export Plug-In . SVG Version: 6.00 Build 0)  -->
<svg version="1.1" id="Capa_1" xmlns="http://www.w3.org/2000/svg" xmlns:xlink="http://www.w3.org/1999/xlink" x="0px" y="0px"
	 viewBox="0 0 402.938 402.938" style="enable-background:new 0 0 402.938 402.938;" xml:space="preserve" fill="#578aa8">
<g>
	<g>
		<path d="M352.849,159.94c-16.45-33.507-43.553-60.61-77.06-77.06l-0.08-0.08c0,0,12.88-13.28,17.36-17.44
			c1.497-1.51,2.332-3.554,2.32-5.68c-0.186-1.831-0.818-3.589-1.84-5.12l-43.04-51.68c-1.523-1.828-3.781-2.884-6.16-2.88h-85.92
			c-2.352,0.113-4.565,1.148-6.16,2.88l-42.96,51.52c-1.09,1.496-1.729,3.273-1.84,5.12c0.131,2.096,0.946,4.091,2.32,5.68
			l17.36,17.68c-83.605,41.046-118.106,142.095-77.06,225.7c41.046,83.605,142.095,118.106,225.7,77.06
			C359.394,344.595,393.895,243.545,352.849,159.94z M247.709,24.4l22.64,27.04h-31.04L247.709,24.4z M268.349,67.44l-49.52,50.4
			l15.6-50.4H268.349z M195.709,152.56c1.534,1.471,3.556,2.326,5.68,2.4c2.1-0.176,4.09-1.017,5.68-2.4l28.4-28.88
			c60.861,18.844,94.923,83.458,76.079,144.319c-18.844,60.861-83.458,94.923-144.319,76.079
			c-60.861-18.844-94.923-83.458-76.079-144.319c11.257-36.357,39.722-64.822,76.079-76.079L195.709,152.56z M185.389,67.44h32
			l-16,52.4L185.389,67.44z M233.389,15.92l-7.04,22.64L214.589,16L233.389,15.92z M215.069,51.44h-27.52l13.84-26.08L215.069,51.44
			z M188.189,16l-11.92,22.64L169.389,16H188.189z M184.029,117.92l-37.52-38.24l-12-12.16h33.92L184.029,117.92z M155.069,24.4
			l8,27.04h-30.56L155.069,24.4z M201.389,386.72c-84.257-0.018-152.545-68.337-152.527-152.593
			c0.013-60.09,35.299-114.576,90.127-139.167l16,16C87.151,136.674,53.003,212.514,78.717,280.352
			c25.714,67.838,101.554,101.986,169.392,76.272s101.986-101.554,76.272-169.392c-13.332-35.171-41.101-62.94-76.272-76.272l16-16
			c76.878,34.481,111.248,124.755,76.768,201.633C316.238,351.527,261.596,386.833,201.389,386.72z"/>
	</g>
</g>
<g>
</g>
<g>
</g>
<g>
</g>
<g>
</g>
<g>
</g>
<g>
</g>
<g>
</g>
<g>
</g>
<g>
</g>
<g>
</g>
<g>
</g>
<g>
</g>
<g>
</g>
<g>
</g>
<g>
</g>
</svg>
