<?xml version="1.0" encoding="utf-8"?>
<!-- Generator: Adobe Illustrator 23.0.1, SVG Export Plug-In . SVG Version: 6.00 Build 0)  -->
<svg fill="#ffffff" version="1.1" id="Layer_1" xmlns="http://www.w3.org/2000/svg" xmlns:xlink="http://www.w3.org/1999/xlink" x="0px" y="0px"
	 viewBox="0 0 1300 250" style="enable-background:new 0 0 1300 250;" xml:space="preserve">
<title>Logo_Delen</title>
<polygon points="20.1,160.4 1279.9,161.2 661.8,155 "/>
<path d="M322.2,221.7c2,0.5,4,0.7,6,0.5c8.5,0,14-4.4,14-11.7s-5.2-10.9-13.2-10.9c-2.3,0-4.6,0.2-6.9,0.5L322.2,221.7z M315.1,195
	c4.5-0.7,9.1-1.1,13.7-1.1c7.1,0,12.3,1.6,15.6,4.6c3.2,2.9,5,7.1,4.9,11.4c0,4.9-1.4,9-4.4,11.7c-3.8,4.1-9.9,6-17,6
	c-1.9,0.1-3.9-0.1-5.8-0.5v22.1h-7.1L315.1,195z"/>
<path d="M387.4,226.3h5.8c6,0,9.9-3.3,9.9-8.2c0-5.7-4.1-8.2-10.1-8.2c-1.8-0.1-3.7,0.1-5.5,0.5V226.3z M381.9,206.7
	c3.5-0.6,7.1-0.9,10.7-0.8c6,0,9.9,1.1,12.6,3.5c2.3,2.1,3.6,5.1,3.6,8.2c0.1,5.1-3.3,9.6-8.2,10.9v0.3c3.3,1.1,5.2,4.4,6.3,8.7
	c0.8,4.1,1.9,8.1,3.3,12h-5.8c-0.8-1.4-1.6-4.9-2.7-10.3c-1.4-6-3.6-8.2-8.8-8.4h-5.2v18.8h-5.8V206.7z"/>
<rect x="441.1" y="206.2" width="5.8" height="43.3"/>
<path d="M490.8,249.5l-14.3-43.3h6l6.9,21.2c1.8,5.3,3.4,10.6,4.7,16.1c1.1-4.9,3-10.3,4.9-16.1l7.4-21.5h6l-15.6,43.3h-6
	L490.8,249.5z"/>
<path d="M559.3,231.5l-4.4-12.5c-0.9-2.6-1.7-5.2-2.2-7.9c-0.5,2.5-1.4,5.2-2.2,7.9l-4.4,12.5H559.3z M545,235.8l-4.7,13.6h-5.8
	l14.8-43.3h6.9l14.8,43.3h-6l-4.7-13.6H545z"/>
<polygon points="605.3,210.8 591.9,210.8 591.9,206.2 624.2,206.2 624.2,210.8 611.1,210.8 611.1,249.5 605.3,249.5 "/>
<polygon points="676,229 659.3,229 659.3,244.8 678.2,244.8 678.2,249.5 653.6,249.5 653.6,206.2 677.1,206.2 677.1,210.8 
	659.3,210.8 659.3,224.4 676,224.4 "/>
<path d="M766.8,244c2,0.3,4,0.3,6,0.3c7.4,0,14.3-2.7,14.3-10.6c0-7.4-6.6-10.6-14.3-10.6h-6V244z M766.8,217.9h6.6
	c7.4,0,11.8-4.1,11.8-9.3c0-6.3-4.9-9-12.1-9c-2.1-0.1-4.2,0.1-6.3,0.5V217.9z M759.6,195.3c4.3-0.9,8.7-1.2,13.2-1.1
	c7.1,0,11.8,1.1,15.1,4.1c3,2.4,4.7,6,4.7,9.8c0,5.4-3.6,10.1-9.3,12v0.3c6.6,1.2,11.5,6.9,11.5,13.6c0.1,4.1-1.6,8.1-4.7,10.9
	c-3.8,3.5-10.1,5.2-18.9,5.2c-3.7,0-7.3-0.2-11-0.5v-54.2H759.6z"/>
<path d="M844.6,231.5l-4.4-12.5c-0.9-2.6-1.7-5.2-2.2-7.9c-0.5,2.5-1.4,5.2-2.2,7.9l-4.4,12.5H844.6z M830.4,235.8l-4.7,13.6h-5.8
	l14.8-43.3h6.9l14.8,43.3h-6l-4.7-13.6H830.4z"/>
<path d="M887.4,249.5v-43.3h6.3l14,21.8c3,4.5,5.5,9.2,7.7,14.2h0.3c-0.5-5.7-0.5-11.2-0.5-17.7v-18.2h5.2v43.3h-5.8l-14-22.1
	c-3-4.6-5.7-9.4-7.9-14.4h-0.3c0.3,5.4,0.3,10.6,0.3,18v18.5L887.4,249.5z"/>
<path d="M954.2,206.2h5.8v21h0.3c1.1-1.6,2.5-3.3,3.6-4.6l13.4-16.3h7.1l-15.9,18.5l17,25.1h-6.9l-14.3-21.2l-4.1,4.6v16.6h-5.8
	v-43.6H954.2z"/>
<path d="M409.3,101.6c5.7,1.4,11.4,2.1,17.3,2.2c12.6,0,23-4.4,31.2-13.1C466.1,82,470.2,70,470.2,55s-4.1-27-12.3-35.7
	S439,6.3,426.1,6.3c-5.7,0.1-11.3,0.9-16.7,2.5L409.3,101.6z M378.1,109.5v-3h4.1c4.7,0,7.9-1.4,9.9-4.4c1.1-1.6,1.6-5.7,1.6-12
	V19.9c0-6.8-0.8-11.2-2.2-12.8c-2.2-2.5-5.2-3.5-9.3-3.5h-4.1v-3h44.7c16.4,0,28.8,1.9,37.6,5.4c8.6,3.8,15.8,10.3,20.6,18.5
	c5.3,9.1,7.9,19.5,7.7,30l0,0c0,15.3-4.7,27.8-14,38.1c-10.4,11.4-26.3,17.2-47.7,17.2h-48.8V109.5z"/>
<path d="M529.4,6.5v43h24.1c6.3,0,10.4-0.8,12.6-2.7c2.7-2.5,4.4-6.8,4.7-13.1h3v37.9h-3c-0.4-3.4-1.2-6.8-2.2-10.1
	c-1.1-1.9-2.7-3.4-4.7-4.4c-2.2-1.1-5.5-1.6-10.1-1.6h-24.1v35.9c-0.1,2.9,0.1,5.8,0.5,8.7c0.4,1,1.2,1.9,2.2,2.5c1.9,0.7,4,1,6,0.8
	h18.6c4.5,0.2,9-0.3,13.4-1.4c3.1-1,6-2.8,8.2-5.2c4.1-4.5,7.6-9.5,10.4-15h3.3l-9.6,27.2h-84.7v-3h3.8c2.6,0,5.1-0.6,7.4-1.9
	c1.6-0.8,2.9-2.1,3.6-3.8c0.7-3.5,1-7.1,0.8-10.6V19.1c0-6.8-0.8-11.2-2.2-12.8C509.7,4.1,506.4,3,502,3h-3.8V0h84.7l1.1,24h-3.3
	c-1.1-5.7-2.5-9.8-3.8-11.7c-1.4-2.3-3.5-4-6-4.9c-2.2-0.8-6-1.1-11.5-1.1h-29.9V6.5z"/>
<path d="M691.1,79.5l2.7,0.5l-9.3,29.7h-85v-3h4.1c4.7,0,7.9-1.6,9.9-4.6c1.1-1.6,1.6-5.7,1.6-12V19.9c0-6.8-0.8-11.2-2.2-12.8
	c-2.2-2.5-5.2-3.5-9.3-3.5h-4.1v-3h49.6v3c-5.8,0-9.9,0.5-12.3,1.6c-2.1,0.8-3.8,2.4-4.9,4.4c-0.8,1.6-1.4,5.7-1.4,12.3v68.6
	c-0.2,3.1,0.3,6.3,1.4,9.3c0.7,1.2,1.7,2,3,2.5c1.4,0.5,5.5,0.8,12.6,0.8h7.9c8.5,0,14.3-0.5,17.8-1.9c3.5-1.5,6.7-3.7,9.3-6.5
	C686.1,89.9,688.9,84.9,691.1,79.5"/>
<path d="M732,6.5v43h24.1c6.3,0,10.4-0.8,12.6-2.7c2.7-2.5,4.4-6.8,4.7-13.1h3v37.9h-3c-0.8-5.2-1.4-8.7-2.2-10.1
	c-1.1-1.9-2.7-3.4-4.7-4.4c-3.2-1.3-6.7-1.8-10.1-1.6H732v35.9c-0.1,2.9,0.1,5.8,0.5,8.7c0.4,1,1.2,1.9,2.2,2.5c1.9,0.7,4,1,6,0.8
	h18.6c4.5,0.2,9-0.3,13.4-1.4c3.1-1,6-2.8,8.2-5.2c4.1-4.5,7.6-9.5,10.4-15h3.3l-9.6,27.2h-84.7v-3h3.8c2.6,0,5.1-0.6,7.4-1.9
	c1.6-0.8,2.9-2.1,3.6-3.8c0.7-3.5,1-7.1,0.8-10.6V19.1c0-6.8-0.8-11.2-2.2-12.8c-1.9-2.2-5.2-3.3-9.6-3.3h-3.8V0h84.7l1.1,24h-3
	c-1.1-5.7-2.5-9.8-3.8-11.7c-1.4-2.3-3.5-4-6-4.9c-2.2-0.8-6-1.1-11.5-1.1H732L732,6.5z"/>
<path d="M796.4,0.5h29.9l67.2,81.7V19.3c0-6.8-0.8-10.9-2.2-12.5c-1.9-2.2-5.2-3.3-9.6-3.3h-3.8v-3h38.1v3H912
	c-4.7,0-7.9,1.4-9.9,4.1c-1.1,1.6-1.9,5.7-1.9,11.7v92h-3l-72.1-88v67.3c0,6.8,0.8,10.9,2.2,12.5c1.9,2.2,5.2,3.3,9.6,3.3h3.8v3
	h-38.1v-3h3.8c4.7,0,7.9-1.4,9.9-4.1c1.1-1.6,1.6-5.7,1.6-11.7v-76c-2.1-2.7-4.5-5.2-7.1-7.4c-2.2-1.3-4.6-2.4-7.1-3.3
	c-2.3-0.6-4.7-0.9-7.1-0.8V0.5H796.4z"/>
</svg>
